<svg width="472" height="298" xmlns="http://www.w3.org/2000/svg" xmlns:xlink="http://www.w3.org/1999/xlink" xml:space="preserve" overflow="hidden"><defs><linearGradient x1="2979.74" y1="1674.41" x2="3341.82" y2="1674.41" gradientUnits="userSpaceOnUse" spreadMethod="reflect" id="fill0"><stop offset="0" stop-color="#E7716B" stop-opacity="1"/><stop offset="0.63" stop-color="#B0C3FA" stop-opacity="1"/><stop offset="1" stop-color="#577E2F" stop-opacity="1"/></linearGradient></defs><g transform="translate(-2942 -1448)"><g><path d="M3198.5 1508.94 3310.66 1455.5 3327.5 1483.02 3205.48 1520.5 3198.5 1508.94Z" stroke="#B0C3FA" stroke-width="4.58333" stroke-linecap="butt" stroke-linejoin="miter" stroke-miterlimit="8" stroke-opacity="1" fill="#B0C3FA" fill-rule="evenodd" fill-opacity="1"/><path d="M3215 1536.6 3325.48 1517 3332 1543.73 3224.62 1547 3215 1536.6Z" fill="#577E2F" fill-rule="evenodd" fill-opacity="1"/><path d="M3230 1556 3235.73 1566.35 3315.54 1595 3327 1574.7 3230 1556Z" fill="#E7716B" fill-rule="evenodd" fill-opacity="1"/><path d="M0 35.0311 20.027 0 142.417 0 162.444 35.0311Z" stroke="#AFABAB" stroke-width="13.75" stroke-linecap="butt" stroke-linejoin="miter" stroke-miterlimit="8" stroke-opacity="1" fill="#F2F2F2" fill-rule="evenodd" fill-opacity="1" transform="matrix(-0.5 -0.866025 -0.866025 0.5 3253.87 1597.12)"/><path d="M0 34 19.4374 0 148.562 0 168 34Z" stroke="#AFABAB" stroke-width="13.75" stroke-linecap="butt" stroke-linejoin="miter" stroke-miterlimit="8" stroke-opacity="1" fill="#F2F2F2" fill-rule="evenodd" fill-opacity="1" transform="matrix(1 0 0 -1 3072 1621)"/><path d="M0 35.0311 20.0269 0 142.417 0 162.444 35.0311Z" stroke="#AFABAB" stroke-width="13.75" stroke-linecap="butt" stroke-linejoin="miter" stroke-miterlimit="8" stroke-opacity="1" fill="#F2F2F2" fill-rule="evenodd" fill-opacity="1" transform="matrix(-0.5 0.866025 0.866025 0.5 3139.79 1455.86)"/><path d="M2989 1529.12 3071.88 1529.13 3071.88 1542.88 2989 1542.87ZM3048.02 1512.98 3084.85 1536 3048.02 1559.02C3044.8 1561.03 3040.56 1560.05 3038.55 1556.83 3036.53 1553.61 3037.51 1549.37 3040.73 1547.36L3068.23 1530.17 3068.23 1541.83 3040.73 1524.64 3040.73 1524.64C3037.51 1522.63 3036.53 1518.39 3038.55 1515.17 3040.56 1511.95 3044.8 1510.97 3048.02 1512.98Z" fill="#BFBFBF" fill-rule="nonzero" fill-opacity="1"/><path d="M3128.7 1669.29C3127.4 1669.29 3126.27 1669.53 3125.31 1670.02 3124.35 1670.51 3123.56 1671.16 3122.92 1671.98 3122.29 1672.81 3121.8 1673.78 3121.46 1674.9 3121.13 1676.02 3120.93 1677.22 3120.88 1678.49L3136.11 1678.49C3136.2 1675.63 3135.62 1673.38 3134.39 1671.74 3133.16 1670.11 3131.26 1669.29 3128.7 1669.29ZM3232.3 1662.76C3233.3 1662.76 3234.12 1662.81 3234.77 1662.89 3235.42 1662.97 3235.94 1663.08 3236.33 1663.23 3236.72 1663.38 3237 1663.55 3237.16 1663.76 3237.32 1663.96 3237.4 1664.2 3237.4 1664.47L3237.4 1700.54C3237.4 1700.81 3237.32 1701.04 3237.16 1701.25 3237 1701.45 3236.72 1701.62 3236.33 1701.75 3235.94 1701.89 3235.42 1701.99 3234.77 1702.06 3234.12 1702.12 3233.3 1702.16 3232.3 1702.16 3231.3 1702.16 3230.47 1702.12 3229.83 1702.06 3229.18 1701.99 3228.66 1701.89 3228.27 1701.75 3227.87 1701.62 3227.6 1701.45 3227.43 1701.25 3227.27 1701.04 3227.19 1700.81 3227.19 1700.54L3227.19 1664.47C3227.19 1664.2 3227.27 1663.96 3227.43 1663.76 3227.6 1663.55 3227.87 1663.38 3228.27 1663.23 3228.66 1663.08 3229.18 1662.97 3229.83 1662.89 3230.47 1662.81 3231.3 1662.76 3232.3 1662.76ZM3030.63 1662.76C3031.63 1662.76 3032.46 1662.81 3033.1 1662.89 3033.75 1662.97 3034.27 1663.08 3034.66 1663.23 3035.06 1663.38 3035.33 1663.55 3035.49 1663.76 3035.66 1663.96 3035.74 1664.2 3035.74 1664.47L3035.74 1700.54C3035.74 1700.81 3035.66 1701.04 3035.49 1701.25 3035.33 1701.45 3035.06 1701.62 3034.66 1701.75 3034.27 1701.89 3033.75 1701.99 3033.1 1702.06 3032.46 1702.12 3031.63 1702.16 3030.63 1702.16 3029.63 1702.16 3028.81 1702.12 3028.16 1702.06 3027.51 1701.99 3026.99 1701.89 3026.6 1701.75 3026.21 1701.62 3025.93 1701.45 3025.77 1701.25 3025.61 1701.04 3025.52 1700.81 3025.52 1700.54L3025.52 1664.47C3025.52 1664.2 3025.61 1663.96 3025.77 1663.76 3025.93 1663.55 3026.21 1663.38 3026.6 1663.23 3026.99 1663.08 3027.51 1662.97 3028.16 1662.89 3028.81 1662.81 3029.63 1662.76 3030.63 1662.76ZM3300.81 1662.08C3302.3 1662.08 3303.64 1662.23 3304.82 1662.54 3306.01 1662.85 3307.07 1663.3 3308.01 1663.88 3308.94 1664.46 3309.74 1665.16 3310.42 1665.97 3311.09 1666.78 3311.66 1667.68 3312.12 1668.68 3313.2 1667.52 3314.26 1666.52 3315.3 1665.68 3316.34 1664.84 3317.37 1664.16 3318.38 1663.64 3319.39 1663.11 3320.41 1662.72 3321.42 1662.46 3322.43 1662.2 3323.47 1662.08 3324.52 1662.08 3326.93 1662.08 3328.95 1662.48 3330.6 1663.29 3332.25 1664.1 3333.58 1665.2 3334.59 1666.59 3335.6 1667.99 3336.33 1669.61 3336.76 1671.48 3337.19 1673.34 3337.41 1675.31 3337.41 1677.39L3337.41 1700.54C3337.41 1700.81 3337.33 1701.04 3337.17 1701.25 3337 1701.45 3336.73 1701.62 3336.35 1701.75 3335.98 1701.89 3335.46 1701.99 3334.81 1702.06 3334.17 1702.12 3333.34 1702.16 3332.34 1702.16 3331.32 1702.16 3330.48 1702.12 3329.83 1702.06 3329.18 1701.99 3328.66 1701.89 3328.27 1701.75 3327.88 1701.62 3327.61 1701.45 3327.46 1701.25 3327.31 1701.04 3327.24 1700.81 3327.24 1700.54L3327.24 1679.1C3327.24 1677.88 3327.12 1676.77 3326.89 1675.77 3326.66 1674.77 3326.31 1673.92 3325.84 1673.2 3325.36 1672.48 3324.77 1671.93 3324.05 1671.54 3323.34 1671.15 3322.48 1670.95 3321.48 1670.95 3320.27 1670.95 3319.04 1671.42 3317.79 1672.37 3316.55 1673.32 3315.2 1674.69 3313.74 1676.5L3313.74 1700.54C3313.74 1700.81 3313.66 1701.04 3313.5 1701.25 3313.33 1701.45 3313.06 1701.62 3312.67 1701.75 3312.27 1701.89 3311.75 1701.99 3311.11 1702.06 3310.46 1702.12 3309.65 1702.16 3308.67 1702.16 3307.67 1702.16 3306.85 1702.12 3306.2 1702.06 3305.55 1701.99 3305.03 1701.89 3304.64 1701.75 3304.25 1701.62 3303.97 1701.45 3303.81 1701.25 3303.65 1701.04 3303.57 1700.81 3303.57 1700.54L3303.57 1679.1C3303.57 1677.88 3303.45 1676.77 3303.22 1675.77 3302.99 1674.77 3302.65 1673.92 3302.19 1673.2 3301.73 1672.48 3301.14 1671.93 3300.41 1671.54 3299.68 1671.15 3298.83 1670.95 3297.85 1670.95 3296.61 1670.95 3295.37 1671.42 3294.12 1672.37 3292.88 1673.32 3291.54 1674.69 3290.11 1676.5L3290.11 1700.54C3290.11 1700.81 3290.03 1701.04 3289.87 1701.25 3289.71 1701.45 3289.43 1701.62 3289.04 1701.75 3288.65 1701.89 3288.13 1701.99 3287.48 1702.06 3286.83 1702.12 3286.01 1702.16 3285.01 1702.16 3284.01 1702.16 3283.18 1702.12 3282.53 1702.06 3281.89 1701.99 3281.37 1701.89 3280.97 1701.75 3280.58 1701.62 3280.31 1701.45 3280.14 1701.25 3279.98 1701.04 3279.9 1700.81 3279.9 1700.54L3279.9 1664.39C3279.9 1664.12 3279.97 1663.88 3280.1 1663.68 3280.24 1663.47 3280.48 1663.3 3280.83 1663.17 3281.18 1663.03 3281.64 1662.93 3282.19 1662.87 3282.74 1662.8 3283.44 1662.76 3284.28 1662.76 3285.14 1662.76 3285.86 1662.8 3286.42 1662.87 3286.99 1662.93 3287.43 1663.03 3287.74 1663.17 3288.05 1663.3 3288.28 1663.47 3288.41 1663.68 3288.55 1663.88 3288.61 1664.12 3288.61 1664.39L3288.61 1668.56C3290.61 1666.4 3292.61 1664.78 3294.59 1663.7 3296.58 1662.62 3298.65 1662.08 3300.81 1662.08ZM3260.01 1662.08C3261.14 1662.08 3262.25 1662.16 3263.31 1662.32 3264.38 1662.48 3265.35 1662.68 3266.21 1662.93 3267.08 1663.17 3267.8 1663.43 3268.4 1663.72 3268.99 1664 3269.42 1664.24 3269.68 1664.45 3269.93 1664.65 3270.11 1664.85 3270.22 1665.05 3270.33 1665.26 3270.41 1665.5 3270.47 1665.78 3270.52 1666.07 3270.57 1666.42 3270.61 1666.84 3270.65 1667.26 3270.67 1667.78 3270.67 1668.4 3270.67 1669.13 3270.65 1669.72 3270.61 1670.18 3270.57 1670.64 3270.5 1671.01 3270.41 1671.28 3270.31 1671.55 3270.18 1671.73 3270.02 1671.82 3269.86 1671.92 3269.67 1671.96 3269.45 1671.96 3269.21 1671.96 3268.83 1671.82 3268.32 1671.54 3267.8 1671.26 3267.16 1670.95 3266.39 1670.63 3265.62 1670.3 3264.73 1670 3263.72 1669.71 3262.7 1669.43 3261.55 1669.29 3260.25 1669.29 3259.33 1669.29 3258.54 1669.38 3257.86 1669.57 3257.19 1669.76 3256.63 1670.03 3256.2 1670.38 3255.77 1670.73 3255.44 1671.15 3255.23 1671.62 3255.01 1672.09 3254.9 1672.6 3254.9 1673.14 3254.9 1673.98 3255.16 1674.68 3255.67 1675.25 3256.19 1675.81 3256.86 1676.31 3257.7 1676.75 3258.54 1677.18 3259.49 1677.58 3260.56 1677.96 3261.62 1678.34 3262.7 1678.75 3263.8 1679.2 3264.89 1679.64 3265.97 1680.16 3267.04 1680.76 3268.11 1681.35 3269.06 1682.08 3269.9 1682.95 3270.74 1683.81 3271.41 1684.85 3271.92 1686.05 3272.44 1687.25 3272.69 1688.68 3272.69 1690.32 3272.69 1692.38 3272.31 1694.19 3271.54 1695.75 3270.77 1697.32 3269.68 1698.63 3268.28 1699.68 3266.87 1700.74 3265.21 1701.53 3263.29 1702.06 3261.37 1702.58 3259.29 1702.85 3257.05 1702.85 3255.7 1702.85 3254.41 1702.74 3253.18 1702.54 3251.95 1702.34 3250.85 1702.08 3249.88 1701.77 3248.91 1701.46 3248.09 1701.14 3247.45 1700.82 3246.8 1700.5 3246.33 1700.19 3246.03 1699.91 3245.73 1699.62 3245.5 1699.18 3245.34 1698.57 3245.18 1697.96 3245.1 1697.06 3245.1 1695.88 3245.1 1695.09 3245.12 1694.46 3245.18 1693.99 3245.23 1693.52 3245.31 1693.14 3245.42 1692.86 3245.53 1692.57 3245.66 1692.38 3245.83 1692.29 3245.99 1692.19 3246.19 1692.15 3246.43 1692.15 3246.73 1692.15 3247.17 1692.32 3247.75 1692.65 3248.33 1692.99 3249.05 1693.36 3249.92 1693.77 3250.78 1694.17 3251.79 1694.55 3252.94 1694.9 3254.09 1695.25 3255.39 1695.43 3256.85 1695.43 3257.77 1695.43 3258.58 1695.33 3259.3 1695.15 3260.02 1694.96 3260.64 1694.69 3261.16 1694.34 3261.69 1693.98 3262.09 1693.54 3262.36 1693 3262.63 1692.46 3262.77 1691.84 3262.77 1691.13 3262.77 1690.32 3262.52 1689.63 3262.02 1689.05 3261.52 1688.47 3260.85 1687.96 3260.03 1687.53 3259.21 1687.09 3258.27 1686.69 3257.23 1686.31 3256.19 1685.93 3255.13 1685.51 3254.03 1685.05 3252.94 1684.6 3251.87 1684.07 3250.83 1683.47 3249.79 1682.88 3248.86 1682.15 3248.03 1681.29 3247.21 1680.42 3246.55 1679.38 3246.05 1678.16 3245.55 1676.95 3245.3 1675.49 3245.3 1673.79 3245.3 1672.06 3245.64 1670.47 3246.31 1669.03 3246.99 1667.58 3247.96 1666.34 3249.23 1665.32 3250.5 1664.29 3252.05 1663.49 3253.87 1662.93 3255.69 1662.36 3257.74 1662.08 3260.01 1662.08ZM3216.29 1662.08C3216.64 1662.08 3217.02 1662.1 3217.43 1662.14 3217.83 1662.18 3218.25 1662.24 3218.68 1662.34 3219.11 1662.43 3219.49 1662.54 3219.82 1662.66 3220.14 1662.78 3220.38 1662.91 3220.53 1663.05 3220.68 1663.18 3220.78 1663.33 3220.85 1663.49 3220.92 1663.66 3220.98 1663.88 3221.03 1664.16 3221.09 1664.45 3221.13 1664.87 3221.15 1665.44 3221.18 1666.01 3221.2 1666.78 3221.2 1667.75 3221.2 1668.72 3221.17 1669.52 3221.11 1670.14 3221.06 1670.76 3220.98 1671.25 3220.87 1671.6 3220.76 1671.95 3220.62 1672.19 3220.45 1672.33 3220.27 1672.46 3220.05 1672.53 3219.78 1672.53 3219.56 1672.53 3219.32 1672.48 3219.05 1672.39 3218.78 1672.3 3218.47 1672.19 3218.14 1672.09 3217.8 1671.98 3217.43 1671.88 3217.02 1671.78 3216.62 1671.69 3216.17 1671.64 3215.68 1671.64 3215.12 1671.64 3214.55 1671.75 3213.98 1671.98 3213.41 1672.21 3212.83 1672.57 3212.22 1673.06 3211.61 1673.54 3210.98 1674.19 3210.31 1675 3209.65 1675.81 3208.94 1676.81 3208.19 1678L3208.19 1700.54C3208.19 1700.81 3208.1 1701.04 3207.94 1701.25 3207.78 1701.45 3207.5 1701.62 3207.11 1701.75 3206.72 1701.89 3206.2 1701.99 3205.55 1702.06 3204.9 1702.12 3204.08 1702.16 3203.08 1702.16 3202.08 1702.16 3201.26 1702.12 3200.61 1702.06 3199.96 1701.99 3199.44 1701.89 3199.05 1701.75 3198.66 1701.62 3198.38 1701.45 3198.22 1701.25 3198.05 1701.04 3197.97 1700.81 3197.97 1700.54L3197.97 1664.39C3197.97 1664.12 3198.04 1663.88 3198.18 1663.68 3198.31 1663.47 3198.55 1663.3 3198.91 1663.17 3199.26 1663.03 3199.71 1662.93 3200.26 1662.87 3200.82 1662.8 3201.51 1662.76 3202.35 1662.76 3203.21 1662.76 3203.93 1662.8 3204.5 1662.87 3205.07 1662.93 3205.5 1663.03 3205.81 1663.17 3206.13 1663.3 3206.35 1663.47 3206.48 1663.68 3206.62 1663.88 3206.69 1664.12 3206.69 1664.39L3206.69 1668.88C3207.63 1667.53 3208.52 1666.42 3209.36 1665.54 3210.2 1664.66 3211 1663.97 3211.75 1663.45 3212.51 1662.94 3213.27 1662.58 3214.02 1662.38 3214.78 1662.18 3215.53 1662.08 3216.29 1662.08ZM3128.94 1662.08C3131.97 1662.08 3134.55 1662.52 3136.7 1663.41 3138.85 1664.3 3140.61 1665.54 3141.99 1667.12 3143.37 1668.7 3144.38 1670.57 3145.03 1672.73 3145.68 1674.9 3146 1677.25 3146 1679.79L3146 1681.41C3146 1682.65 3145.73 1683.57 3145.17 1684.16 3144.62 1684.76 3143.85 1685.05 3142.88 1685.05L3120.88 1685.05C3120.88 1686.59 3121.06 1687.99 3121.42 1689.25 3121.79 1690.51 3122.37 1691.57 3123.17 1692.45 3123.96 1693.33 3124.99 1694 3126.25 1694.46 3127.5 1694.92 3129.01 1695.15 3130.76 1695.15 3132.55 1695.15 3134.11 1695.02 3135.47 1694.76 3136.82 1694.5 3137.99 1694.22 3138.97 1693.91 3139.96 1693.6 3140.77 1693.32 3141.42 1693.06 3142.07 1692.8 3142.6 1692.67 3143 1692.67 3143.25 1692.67 3143.45 1692.72 3143.61 1692.82 3143.77 1692.91 3143.91 1693.08 3144.02 1693.32 3144.12 1693.57 3144.2 1693.91 3144.24 1694.36 3144.28 1694.8 3144.3 1695.36 3144.3 1696.04 3144.3 1696.63 3144.29 1697.14 3144.26 1697.56 3144.23 1697.98 3144.19 1698.33 3144.14 1698.63 3144.08 1698.93 3144 1699.18 3143.9 1699.38 3143.79 1699.58 3143.65 1699.78 3143.47 1699.97 3143.29 1700.16 3142.81 1700.41 3142.03 1700.74 3141.25 1701.06 3140.25 1701.38 3139.03 1701.69 3137.82 1702 3136.42 1702.27 3134.86 1702.5 3133.29 1702.73 3131.62 1702.85 3129.83 1702.85 3126.62 1702.85 3123.8 1702.44 3121.38 1701.63 3118.96 1700.82 3116.94 1699.59 3115.32 1697.94 3113.7 1696.29 3112.49 1694.21 3111.7 1691.7 3110.9 1689.19 3110.5 1686.24 3110.5 1682.87 3110.5 1679.65 3110.92 1676.75 3111.76 1674.17 3112.59 1671.59 3113.81 1669.4 3115.4 1667.61 3117 1665.81 3118.94 1664.44 3121.22 1663.49 3123.5 1662.55 3126.08 1662.08 3128.94 1662.08ZM3066.49 1662.08C3067.98 1662.08 3069.31 1662.23 3070.5 1662.54 3071.69 1662.85 3072.75 1663.3 3073.68 1663.88 3074.61 1664.46 3075.42 1665.16 3076.09 1665.97 3076.77 1666.78 3077.34 1667.68 3077.8 1668.68 3078.88 1667.52 3079.94 1666.52 3080.98 1665.68 3082.02 1664.84 3083.04 1664.16 3084.06 1663.64 3085.07 1663.11 3086.08 1662.72 3087.1 1662.46 3088.11 1662.2 3089.14 1662.08 3090.2 1662.08 3092.6 1662.08 3094.63 1662.48 3096.28 1663.29 3097.92 1664.1 3099.26 1665.2 3100.27 1666.59 3101.28 1667.99 3102 1669.61 3102.44 1671.48 3102.87 1673.34 3103.09 1675.31 3103.09 1677.39L3103.09 1700.54C3103.09 1700.81 3103 1701.04 3102.84 1701.25 3102.68 1701.45 3102.41 1701.62 3102.03 1701.75 3101.65 1701.89 3101.14 1701.99 3100.49 1702.06 3099.84 1702.12 3099.02 1702.16 3098.02 1702.16 3096.99 1702.16 3096.16 1702.12 3095.51 1702.06 3094.86 1701.99 3094.34 1701.89 3093.95 1701.75 3093.55 1701.62 3093.28 1701.45 3093.14 1701.25 3092.99 1701.04 3092.91 1700.81 3092.91 1700.54L3092.91 1679.1C3092.91 1677.88 3092.8 1676.77 3092.57 1675.77 3092.34 1674.77 3091.99 1673.92 3091.51 1673.2 3091.04 1672.48 3090.45 1671.93 3089.73 1671.54 3089.02 1671.15 3088.16 1670.95 3087.16 1670.95 3085.94 1670.95 3084.71 1671.42 3083.47 1672.37 3082.23 1673.32 3080.88 1674.69 3079.42 1676.5L3079.42 1700.54C3079.42 1700.81 3079.34 1701.04 3079.17 1701.25 3079.01 1701.45 3078.74 1701.62 3078.34 1701.75 3077.95 1701.89 3077.43 1701.99 3076.78 1702.06 3076.13 1702.12 3075.32 1702.16 3074.35 1702.16 3073.35 1702.16 3072.53 1702.12 3071.88 1702.06 3071.23 1701.99 3070.71 1701.89 3070.32 1701.75 3069.93 1701.62 3069.65 1701.45 3069.49 1701.25 3069.33 1701.04 3069.25 1700.81 3069.25 1700.54L3069.25 1679.1C3069.25 1677.88 3069.13 1676.77 3068.9 1675.77 3068.67 1674.77 3068.33 1673.92 3067.87 1673.2 3067.41 1672.48 3066.81 1671.93 3066.08 1671.54 3065.35 1671.15 3064.5 1670.95 3063.53 1670.95 3062.29 1670.95 3061.04 1671.42 3059.8 1672.37 3058.56 1673.32 3057.22 1674.69 3055.79 1676.5L3055.79 1700.54C3055.79 1700.81 3055.71 1701.04 3055.55 1701.25 3055.38 1701.45 3055.11 1701.62 3054.72 1701.75 3054.32 1701.89 3053.8 1701.99 3053.16 1702.06 3052.51 1702.12 3051.68 1702.16 3050.68 1702.16 3049.68 1702.16 3048.86 1702.12 3048.21 1702.06 3047.56 1701.99 3047.04 1701.89 3046.65 1701.75 3046.26 1701.62 3045.98 1701.45 3045.82 1701.25 3045.66 1701.04 3045.58 1700.81 3045.58 1700.54L3045.58 1664.39C3045.58 1664.12 3045.64 1663.88 3045.78 1663.68 3045.91 1663.47 3046.16 1663.3 3046.51 1663.17 3046.86 1663.03 3047.31 1662.93 3047.87 1662.87 3048.42 1662.8 3049.12 1662.76 3049.95 1662.76 3050.82 1662.76 3051.53 1662.8 3052.1 1662.87 3052.67 1662.93 3053.11 1663.03 3053.42 1663.17 3053.73 1663.3 3053.95 1663.47 3054.09 1663.68 3054.22 1663.88 3054.29 1664.12 3054.29 1664.39L3054.29 1668.56C3056.29 1666.4 3058.28 1664.78 3060.27 1663.7 3062.25 1662.62 3064.33 1662.08 3066.49 1662.08ZM3165.12 1657.7 3165.12 1675.49 3169.91 1675.49C3171.61 1675.49 3173.03 1675.26 3174.18 1674.8 3175.33 1674.34 3176.27 1673.7 3177 1672.88 3177.73 1672.05 3178.28 1671.07 3178.66 1669.92 3179.04 1668.77 3179.23 1667.52 3179.23 1666.17 3179.23 1664.33 3178.9 1662.82 3178.26 1661.63 3177.61 1660.44 3176.81 1659.56 3175.86 1659 3174.92 1658.43 3173.93 1658.07 3172.89 1657.92 3171.85 1657.77 3170.77 1657.7 3169.66 1657.7ZM3158.07 1649.47 3170.43 1649.47C3171.68 1649.47 3172.86 1649.52 3173.98 1649.61 3175.1 1649.71 3176.45 1649.91 3178.01 1650.22 3179.58 1650.53 3181.17 1651.11 3182.77 1651.94 3184.38 1652.78 3185.75 1653.84 3186.89 1655.13 3188.02 1656.41 3188.89 1657.91 3189.48 1659.62 3190.08 1661.34 3190.37 1663.26 3190.37 1665.4 3190.37 1668.34 3189.91 1670.95 3189 1673.22 3188.08 1675.49 3186.74 1677.4 3184.98 1678.96 3183.23 1680.51 3181.07 1681.69 3178.52 1682.5 3175.97 1683.31 3172.96 1683.72 3169.5 1683.72L3165.12 1683.72 3165.12 1700.45C3165.12 1700.73 3165.04 1700.97 3164.86 1701.18 3164.69 1701.4 3164.4 1701.58 3163.99 1701.71 3163.58 1701.85 3163.04 1701.95 3162.37 1702.04 3161.69 1702.12 3160.83 1702.16 3159.78 1702.16 3158.75 1702.16 3157.89 1702.12 3157.2 1702.04 3156.51 1701.95 3155.97 1701.85 3155.56 1701.71 3155.16 1701.58 3154.87 1701.4 3154.71 1701.18 3154.55 1700.97 3154.47 1700.73 3154.47 1700.45L3154.47 1653.28C3154.47 1652.01 3154.8 1651.06 3155.46 1650.42 3156.12 1649.79 3156.99 1649.47 3158.07 1649.47ZM2981.81 1649.47 3018.77 1649.47C3019.01 1649.47 3019.24 1649.55 3019.44 1649.69 3019.64 1649.84 3019.81 1650.09 3019.94 1650.42 3020.08 1650.76 3020.18 1651.21 3020.25 1651.78 3020.32 1652.35 3020.35 1653.04 3020.35 1653.85 3020.35 1654.63 3020.32 1655.3 3020.25 1655.85 3020.18 1656.41 3020.08 1656.85 3019.94 1657.19 3019.81 1657.53 3019.64 1657.78 3019.44 1657.94 3019.24 1658.1 3019.01 1658.18 3018.77 1658.18L3005.64 1658.18 3005.64 1700.45C3005.64 1700.73 3005.55 1700.97 3005.38 1701.18 3005.2 1701.4 3004.91 1701.58 3004.5 1701.71 3004.1 1701.85 3003.55 1701.95 3002.86 1702.04 3002.17 1702.12 3001.32 1702.16 3000.29 1702.16 2999.26 1702.16 2998.4 1702.12 2997.72 1702.04 2997.03 1701.95 2996.48 1701.85 2996.07 1701.71 2995.67 1701.58 2995.38 1701.4 2995.2 1701.18 2995.03 1700.97 2994.94 1700.73 2994.94 1700.45L2994.94 1658.18 2981.81 1658.18C2981.54 1658.18 2981.31 1658.1 2981.12 1657.94 2980.93 1657.78 2980.77 1657.53 2980.63 1657.19 2980.5 1656.85 2980.4 1656.41 2980.33 1655.85 2980.26 1655.3 2980.23 1654.63 2980.23 1653.85 2980.23 1653.04 2980.26 1652.35 2980.33 1651.78 2980.4 1651.21 2980.5 1650.76 2980.63 1650.42 2980.77 1650.09 2980.93 1649.84 2981.12 1649.69 2981.31 1649.55 2981.54 1649.47 2981.81 1649.47ZM3232.34 1646.88C3234.61 1646.88 3236.15 1647.26 3236.96 1648.03 3237.77 1648.8 3238.17 1650.17 3238.17 1652.15 3238.17 1654.2 3237.76 1655.62 3236.92 1656.4 3236.08 1657.19 3234.53 1657.58 3232.26 1657.58 3229.96 1657.58 3228.41 1657.2 3227.62 1656.44 3226.82 1655.69 3226.42 1654.32 3226.42 1652.35 3226.42 1650.3 3226.83 1648.87 3227.66 1648.07 3228.48 1647.28 3230.04 1646.88 3232.34 1646.88ZM3030.67 1646.88C3032.94 1646.88 3034.48 1647.26 3035.29 1648.03 3036.1 1648.8 3036.51 1650.17 3036.51 1652.15 3036.51 1654.2 3036.09 1655.62 3035.25 1656.4 3034.41 1657.19 3032.86 1657.58 3030.59 1657.58 3028.29 1657.58 3026.75 1657.2 3025.95 1656.44 3025.15 1655.69 3024.75 1654.32 3024.75 1652.35 3024.75 1650.3 3025.17 1648.87 3025.99 1648.07 3026.82 1647.28 3028.38 1646.88 3030.67 1646.88Z" fill="url(#fill0)" fill-rule="evenodd"/><text fill="#000000" fill-opacity="0" font-family="Arial,Arial_MSFontService,sans-serif" font-size="55.9683" direction="ltr" writing-mode="lr-tb" x="2980.23" y="1695.85">TimePrism</text></g></g></svg>